<?xml version="1.0" encoding="utf-8"?><svg version="1.1" id="Layer_1" xmlns="http://www.w3.org/2000/svg" xmlns:xlink="http://www.w3.org/1999/xlink" x="0px" y="0px" viewBox="0 0 122.88 122.88" style="enable-background:new 0 0 122.88 122.88" xml:space="preserve"><style type="text/css"><![CDATA[
	.st0{fill:#51A148;}
	.st1{fill-rule:evenodd;clip-rule:evenodd;fill:#51A148;}
	.st2{fill-rule:evenodd;clip-rule:evenodd;fill:#FFFFFF;}
]]></style><g><path class="st0" d="M61.44,0c16.97,0,32.33,6.88,43.44,18c11.12,11.12,17.99,26.48,17.99,43.44c0,16.97-6.88,32.33-17.99,43.44 c-11.12,11.12-26.48,18-43.44,18c-16.97,0-32.33-6.88-43.44-18C6.88,93.77,0,78.41,0,61.44C0,44.47,6.88,29.11,18,18 C29.11,6.88,44.47,0,61.44,0L61.44,0z M61.44,7.17c14.99,0,28.56,6.07,38.38,15.9c9.82,9.82,15.9,23.39,15.9,38.38 S109.64,90,99.82,99.82c-9.82,9.82-23.39,15.9-38.38,15.9c-14.99,0-28.56-6.07-38.38-15.9C13.24,90,7.17,76.43,7.17,61.44 s6.07-28.56,15.9-38.38C32.88,13.24,46.45,7.17,61.44,7.17L61.44,7.17z M61.44,9.4c28.74,0,52.04,23.3,52.04,52.04 c0,28.74-23.3,52.04-52.04,52.04c-28.74,0-52.04-23.3-52.04-52.04C9.4,32.7,32.7,9.4,61.44,9.4L61.44,9.4z M101.31,21.57 C91.1,11.37,77.01,5.06,61.44,5.06c-15.57,0-29.66,6.31-39.87,16.51S5.06,45.87,5.06,61.44c0,15.57,6.31,29.66,16.51,39.87 s24.3,16.51,39.87,16.51c15.57,0,29.66-6.31,39.87-16.51c10.2-10.2,16.51-24.3,16.51-39.87C117.82,45.87,111.51,31.78,101.31,21.57 L101.31,21.57z"/><path class="st2" d="M61.44,9.4c28.74,0,52.04,23.3,52.04,52.04c0,28.74-23.3,52.04-52.04,52.04c-28.74,0-52.04-23.3-52.04-52.04 C9.4,32.7,32.7,9.4,61.44,9.4L61.44,9.4z"/><path class="st0" d="M38.45,40.19v-8.69c-0.6,0.44-1.13,0.79-1.59,1.05c-0.67,0.38-1.19,0.57-1.57,0.57c-0.21,0-0.4-0.04-0.59-0.13 c-0.18-0.08-0.35-0.2-0.5-0.36c-0.15-0.15-0.26-0.33-0.34-0.51c-0.08-0.19-0.12-0.4-0.12-0.6c0-0.24,0.04-0.45,0.12-0.64 c0.09-0.2,0.22-0.37,0.39-0.5l0.03-0.02c0.13-0.09,0.29-0.19,0.48-0.3l0.75-0.38c0.81-0.38,1.46-0.78,1.93-1.19 c0.24-0.21,0.47-0.43,0.68-0.67c0.21-0.24,0.42-0.48,0.6-0.74c0.28-0.36,0.51-0.7,0.8-1.05c0.11-0.12,0.27-0.21,0.46-0.26 c0.15-0.04,0.33-0.06,0.53-0.06c0.51,0,0.92,0.2,1.23,0.6c0.15,0.18,0.26,0.4,0.33,0.66c0.07,0.24,0.1,0.5,0.1,0.79v12.03 c0,0.79-0.15,1.4-0.44,1.83c-0.33,0.48-0.8,0.72-1.44,0.72c-0.27,0-0.52-0.05-0.74-0.14c-0.23-0.1-0.44-0.24-0.61-0.43l-0.02-0.02 c-0.16-0.19-0.29-0.41-0.36-0.67C38.49,40.8,38.45,40.51,38.45,40.19L38.45,40.19z M57.26,34.07c0,0.57-0.02,1.12-0.05,1.63 c-0.03,0.5-0.09,0.97-0.16,1.4c-0.07,0.43-0.18,0.85-0.32,1.25c-0.14,0.4-0.31,0.78-0.51,1.14c-0.26,0.45-0.55,0.84-0.89,1.19 c-0.34,0.34-0.71,0.64-1.12,0.88c-0.41,0.24-0.85,0.43-1.31,0.55c-0.46,0.12-0.94,0.18-1.43,0.18c-0.58,0-1.13-0.08-1.64-0.25 c-0.52-0.16-1.01-0.41-1.47-0.74c-0.46-0.33-0.86-0.72-1.2-1.17c-0.34-0.45-0.63-0.95-0.85-1.52l-0.01-0.02 c-0.11-0.3-0.21-0.63-0.3-0.96c-0.08-0.34-0.15-0.69-0.2-1.05c-0.05-0.36-0.09-0.74-0.12-1.13c-0.03-0.4-0.04-0.81-0.04-1.22 c0-0.52,0.02-1.04,0.04-1.53l0-0.01c0.03-0.48,0.07-0.94,0.13-1.37c0.06-0.43,0.13-0.84,0.22-1.23c0.09-0.39,0.2-0.75,0.33-1.06 L46.38,29c0.22-0.52,0.49-0.99,0.8-1.4c0.33-0.42,0.71-0.78,1.14-1.06c0.43-0.29,0.91-0.51,1.42-0.65 c0.51-0.14,1.06-0.22,1.64-0.22c0.38,0,0.75,0.03,1.11,0.1c0.35,0.06,0.7,0.16,1.02,0.29l0.03,0.01c0.31,0.13,0.6,0.28,0.88,0.46 c0.28,0.19,0.55,0.41,0.79,0.65c0.24,0.25,0.47,0.52,0.67,0.82c0.2,0.3,0.38,0.62,0.55,0.98l0.02,0.04 c0.27,0.61,0.48,1.33,0.62,2.17l0,0.02C57.19,32.05,57.26,33.01,57.26,34.07L57.26,34.07z M53.52,33.86c0-0.64-0.02-1.21-0.06-1.71 c-0.04-0.51-0.09-0.96-0.17-1.35l0-0.01c-0.07-0.37-0.17-0.7-0.28-0.98c-0.11-0.27-0.25-0.49-0.4-0.66 c-0.14-0.16-0.3-0.28-0.49-0.35l-0.02-0.01c-0.19-0.07-0.42-0.11-0.67-0.11c-0.37,0-0.68,0.09-0.92,0.27l-0.02,0.02 c-0.24,0.18-0.44,0.46-0.58,0.83c-0.17,0.43-0.29,0.99-0.38,1.67c-0.09,0.69-0.13,1.52-0.13,2.48c0,0.66,0.02,1.25,0.05,1.77 c0.04,0.53,0.09,0.99,0.17,1.39c0.07,0.38,0.17,0.73,0.29,1.02c0.11,0.28,0.25,0.51,0.4,0.69c0.14,0.16,0.3,0.29,0.49,0.37 c0.19,0.08,0.41,0.13,0.66,0.13c0.27,0,0.49-0.04,0.69-0.13c0.19-0.08,0.35-0.21,0.49-0.38c0.16-0.19,0.29-0.43,0.4-0.71 c0.11-0.29,0.21-0.63,0.28-1.02c0.07-0.41,0.13-0.88,0.16-1.41C53.5,35.14,53.52,34.53,53.52,33.86L53.52,33.86z M69.94,34.07 c0,0.57-0.02,1.12-0.05,1.63c-0.03,0.5-0.09,0.97-0.16,1.4c-0.07,0.43-0.18,0.85-0.32,1.25c-0.14,0.4-0.31,0.78-0.51,1.14 c-0.26,0.45-0.55,0.84-0.89,1.19c-0.34,0.34-0.71,0.64-1.12,0.88c-0.41,0.24-0.85,0.43-1.31,0.55c-0.46,0.12-0.94,0.18-1.43,0.18 c-0.58,0-1.13-0.08-1.64-0.25c-0.52-0.16-1.01-0.41-1.47-0.74c-0.46-0.33-0.86-0.72-1.2-1.17c-0.34-0.45-0.63-0.95-0.85-1.52 l-0.01-0.02c-0.11-0.3-0.21-0.63-0.3-0.96c-0.08-0.34-0.15-0.69-0.2-1.05c-0.05-0.36-0.09-0.74-0.12-1.13 c-0.03-0.4-0.04-0.81-0.04-1.22c0-0.52,0.02-1.04,0.04-1.53l0-0.01c0.03-0.48,0.07-0.94,0.13-1.37c0.06-0.43,0.13-0.84,0.22-1.23 c0.09-0.39,0.2-0.75,0.33-1.06L59.06,29c0.22-0.52,0.49-0.99,0.8-1.4c0.33-0.42,0.71-0.78,1.14-1.06c0.43-0.29,0.91-0.51,1.42-0.65 c0.51-0.14,1.06-0.22,1.64-0.22c0.38,0,0.75,0.03,1.11,0.1c0.35,0.06,0.7,0.16,1.02,0.29l0.03,0.01c0.31,0.13,0.6,0.28,0.88,0.46 c0.29,0.19,0.55,0.41,0.79,0.65c0.24,0.25,0.47,0.52,0.67,0.82c0.2,0.3,0.38,0.62,0.55,0.98l0.01,0.04 c0.28,0.61,0.48,1.33,0.62,2.17l0,0.02C69.87,32.05,69.94,33.01,69.94,34.07L69.94,34.07z M66.2,33.86c0-0.64-0.02-1.21-0.06-1.71 c-0.04-0.51-0.09-0.96-0.17-1.35l0-0.01c-0.07-0.37-0.17-0.7-0.28-0.98c-0.11-0.27-0.25-0.49-0.39-0.66 c-0.14-0.16-0.3-0.28-0.49-0.35l-0.02-0.01c-0.19-0.07-0.42-0.11-0.67-0.11c-0.37,0-0.68,0.09-0.92,0.27l-0.02,0.02 c-0.24,0.18-0.44,0.46-0.58,0.83c-0.17,0.43-0.29,0.99-0.38,1.67c-0.09,0.69-0.13,1.52-0.13,2.48c0,0.66,0.02,1.25,0.05,1.77 c0.04,0.53,0.09,0.99,0.17,1.39c0.07,0.38,0.17,0.73,0.29,1.02c0.11,0.28,0.25,0.51,0.4,0.69c0.14,0.16,0.3,0.29,0.49,0.37 c0.19,0.08,0.41,0.13,0.66,0.13c0.27,0,0.49-0.04,0.69-0.13c0.19-0.08,0.35-0.21,0.49-0.38c0.16-0.19,0.29-0.43,0.4-0.71 c0.11-0.29,0.21-0.63,0.28-1.02c0.07-0.41,0.13-0.88,0.16-1.41C66.18,35.14,66.2,34.53,66.2,33.86L66.2,33.86z M78.39,30.18 c0,0.71-0.08,1.33-0.24,1.87c-0.17,0.56-0.42,1.03-0.76,1.4l-0.02,0.02c-0.33,0.36-0.73,0.64-1.19,0.82 c-0.46,0.18-0.96,0.28-1.53,0.28c-0.35,0-0.68-0.04-1-0.12c-0.32-0.08-0.63-0.2-0.91-0.35c-0.29-0.16-0.55-0.37-0.78-0.62 c-0.22-0.25-0.41-0.54-0.57-0.87l-0.01-0.03c-0.15-0.32-0.26-0.68-0.34-1.06c-0.08-0.39-0.12-0.81-0.12-1.26 c0-0.47,0.03-0.91,0.09-1.31c0.06-0.41,0.15-0.78,0.26-1.11l0.02-0.04c0.12-0.33,0.28-0.63,0.48-0.88c0.21-0.27,0.46-0.5,0.74-0.68 c0.28-0.18,0.6-0.32,0.96-0.41l0.02,0c0.35-0.09,0.72-0.13,1.13-0.13c0.29,0,0.58,0.02,0.85,0.07c0.26,0.05,0.52,0.12,0.75,0.21 c0.24,0.1,0.46,0.22,0.67,0.37c0.2,0.15,0.39,0.33,0.56,0.53l0.02,0.03c0.15,0.19,0.29,0.4,0.4,0.63c0.12,0.23,0.22,0.49,0.3,0.77 l0.01,0.02c0.07,0.27,0.13,0.55,0.16,0.86C78.37,29.49,78.39,29.83,78.39,30.18L78.39,30.18z M75.56,30.07 c0-0.44-0.02-0.81-0.07-1.12l0-0.01c-0.04-0.29-0.1-0.52-0.18-0.68l-0.01-0.01c-0.06-0.12-0.14-0.21-0.23-0.27l-0.01-0.01 c-0.1-0.06-0.23-0.08-0.4-0.08c-0.12,0-0.22,0.02-0.3,0.05c-0.08,0.03-0.14,0.07-0.2,0.13c-0.06,0.06-0.12,0.15-0.16,0.25 l-0.01,0.02c-0.05,0.11-0.09,0.24-0.12,0.39c-0.03,0.18-0.06,0.38-0.08,0.61l-0.03,0.79l0.03,0.83c0.02,0.23,0.04,0.44,0.07,0.61 c0.03,0.16,0.07,0.3,0.13,0.42c0.04,0.1,0.1,0.18,0.16,0.24l0.02,0.02c0.05,0.05,0.11,0.09,0.18,0.11 c0.08,0.03,0.19,0.05,0.31,0.05c0.18,0,0.32-0.03,0.42-0.1c0.1-0.06,0.18-0.16,0.24-0.3l0.01-0.01c0.07-0.18,0.13-0.43,0.17-0.73 C75.54,30.92,75.56,30.53,75.56,30.07L75.56,30.07z M89.14,37.77c0,0.71-0.08,1.33-0.24,1.87c-0.17,0.56-0.42,1.03-0.76,1.4 l-0.02,0.02c-0.33,0.36-0.73,0.64-1.19,0.82c-0.46,0.18-0.96,0.28-1.53,0.28c-0.35,0-0.69-0.04-1.01-0.12l-0.02-0.01 c-0.31-0.08-0.61-0.2-0.89-0.35c-0.29-0.16-0.55-0.37-0.78-0.62c-0.22-0.24-0.42-0.53-0.58-0.86l-0.01-0.03 c-0.15-0.32-0.27-0.67-0.34-1.05c-0.08-0.39-0.11-0.81-0.11-1.26c0-0.71,0.07-1.35,0.21-1.9c0.14-0.57,0.37-1.05,0.66-1.44 c0.3-0.41,0.7-0.71,1.19-0.92c0.47-0.19,1.02-0.29,1.64-0.29c0.29,0,0.57,0.02,0.84,0.07l0.02,0c0.26,0.04,0.51,0.12,0.74,0.21 c0.23,0.1,0.45,0.22,0.66,0.36c0.2,0.15,0.39,0.32,0.56,0.51c0.17,0.2,0.31,0.41,0.44,0.65l0.01,0.02 c0.12,0.23,0.21,0.48,0.29,0.75l0.01,0.02c0.07,0.27,0.13,0.56,0.16,0.86C89.13,37.09,89.14,37.42,89.14,37.77L89.14,37.77z M86.31,37.67c0-0.43-0.02-0.8-0.07-1.11c-0.04-0.29-0.1-0.52-0.18-0.69c-0.06-0.13-0.14-0.22-0.24-0.28l-0.01-0.01 c-0.1-0.06-0.23-0.08-0.4-0.08c-0.13,0-0.24,0.02-0.32,0.05c-0.08,0.03-0.14,0.07-0.19,0.12c-0.06,0.06-0.12,0.15-0.16,0.24 c-0.05,0.11-0.1,0.25-0.13,0.41l0,0.02c-0.03,0.16-0.06,0.36-0.08,0.58c-0.02,0.23-0.03,0.5-0.03,0.79c0,0.45,0.02,0.84,0.07,1.15 v0.01c0.04,0.3,0.11,0.54,0.19,0.71c0.06,0.14,0.15,0.24,0.25,0.3c0.11,0.06,0.25,0.1,0.42,0.1c0.32,0,0.54-0.13,0.65-0.4 c0.08-0.19,0.14-0.44,0.18-0.74C86.29,38.52,86.31,38.12,86.31,37.67L86.31,37.67z M85.33,27.74l-8.75,14.11 c-0.14,0.24-0.3,0.42-0.46,0.55c-0.21,0.16-0.43,0.24-0.66,0.24c-0.13,0-0.26-0.03-0.39-0.08c-0.12-0.04-0.24-0.11-0.35-0.2 c-0.13-0.1-0.24-0.22-0.3-0.36l-0.01-0.02c-0.06-0.14-0.1-0.29-0.1-0.44c0-0.12,0.03-0.26,0.08-0.4c0.04-0.11,0.11-0.24,0.2-0.37 L83.6,26.2l0.22-0.29c0.1-0.12,0.23-0.2,0.37-0.26l0.04-0.01c0.13-0.04,0.26-0.07,0.41-0.07c0.15,0,0.29,0.02,0.43,0.07l0.02,0.01 c0.13,0.05,0.25,0.13,0.35,0.22l0.02,0.02c0.1,0.1,0.18,0.22,0.23,0.35c0.05,0.14,0.08,0.28,0.08,0.44c0,0.13-0.05,0.3-0.14,0.5 C85.58,27.33,85.47,27.52,85.33,27.74L85.33,27.74z"/><path class="st1" d="M63.06,75.37c0.6,0.16,1.31,0.26,1.93,0.36c15.68,2.52,26.88-5.15,24.84-28.35 c-10.81,3.75-25.45,3-28.39,16.63C58.5,50.38,43.86,51.12,33.05,47.38C31,70.66,42.29,78.31,58.06,75.7 c0.56-0.09,1.21-0.19,1.76-0.33C60.25,76.13,61.92,76.51,63.06,75.37L63.06,75.37z M57.63,71.07 c-4.31-9.28-15.37-12.45-20.86-18.79C42.72,63.86,47.58,64.43,57.63,71.07L57.63,71.07L57.63,71.07z M65.25,71.07 c4.31-9.28,15.37-12.45,20.86-18.79C80.16,63.86,75.3,64.43,65.25,71.07L65.25,71.07L65.25,71.07z"/><path class="st2" d="M65.25,71.07c4.31-9.28,15.37-12.45,20.86-18.79C80.16,63.86,75.3,64.43,65.25,71.07L65.25,71.07L65.25,71.07z"/><path class="st2" d="M57.63,71.07c-4.31-9.28-15.37-12.45-20.86-18.79C42.72,63.86,47.58,64.43,57.63,71.07L57.63,71.07 L57.63,71.07z"/><path class="st0" d="M36.44,79.94c0.63,0,1.21,0.06,1.76,0.19c0.54,0.13,1.04,0.32,1.5,0.58l0.01,0.01 c0.45,0.26,0.85,0.57,1.19,0.93c0.35,0.37,0.64,0.79,0.87,1.27c0.23,0.47,0.41,0.99,0.52,1.54c0.12,0.55,0.17,1.14,0.17,1.78 c0,0.93-0.13,1.79-0.38,2.56c-0.13,0.39-0.29,0.75-0.48,1.08c-0.19,0.33-0.42,0.65-0.68,0.93c-0.26,0.29-0.55,0.54-0.86,0.76 c-0.32,0.22-0.66,0.4-1.03,0.55l-0.01,0c-0.37,0.15-0.77,0.26-1.19,0.33c-0.42,0.07-0.88,0.11-1.35,0.11 c-0.47,0-0.92-0.04-1.35-0.12c-0.43-0.08-0.83-0.19-1.21-0.35c-0.38-0.15-0.73-0.34-1.04-0.56c-0.32-0.22-0.61-0.47-0.86-0.75 l-0.01-0.01c-0.25-0.28-0.47-0.59-0.66-0.92c-0.19-0.34-0.35-0.71-0.48-1.1c-0.13-0.39-0.22-0.8-0.29-1.22 c-0.06-0.42-0.1-0.86-0.1-1.32c0-0.46,0.03-0.91,0.1-1.34c0.07-0.43,0.17-0.84,0.3-1.23l0.01-0.01c0.13-0.39,0.3-0.74,0.49-1.07 c0.2-0.33,0.42-0.64,0.68-0.92s0.54-0.52,0.86-0.73c0.31-0.21,0.65-0.39,1.02-0.54l0.01,0c0.36-0.14,0.75-0.25,1.16-0.32 C35.54,79.97,35.98,79.94,36.44,79.94L36.44,79.94z M39.64,86.22c0-0.42-0.03-0.81-0.1-1.17s-0.17-0.69-0.3-1l0-0.01 c-0.13-0.29-0.29-0.55-0.48-0.78c-0.19-0.22-0.4-0.41-0.64-0.56c-0.24-0.15-0.5-0.27-0.78-0.34c-0.28-0.08-0.58-0.11-0.9-0.11 c-0.23,0-0.44,0.02-0.65,0.06c-0.21,0.04-0.41,0.11-0.6,0.19l-0.01,0c-0.19,0.08-0.36,0.19-0.52,0.3 c-0.16,0.12-0.31,0.26-0.45,0.42c-0.14,0.16-0.26,0.34-0.37,0.55c-0.11,0.21-0.21,0.44-0.29,0.7c-0.08,0.26-0.14,0.53-0.18,0.82 c-0.04,0.29-0.06,0.6-0.06,0.92c0,0.33,0.02,0.64,0.06,0.93c0.04,0.29,0.1,0.57,0.18,0.83c0.08,0.26,0.18,0.5,0.29,0.71 c0.11,0.21,0.24,0.4,0.38,0.57c0.14,0.17,0.3,0.31,0.47,0.44c0.16,0.12,0.34,0.23,0.53,0.31l0.01,0.01 c0.18,0.08,0.38,0.14,0.58,0.18c0.2,0.04,0.42,0.06,0.65,0.06c0.29,0,0.57-0.04,0.83-0.11s0.52-0.18,0.76-0.32l0.01,0 c0.23-0.14,0.44-0.32,0.63-0.54c0.19-0.22,0.36-0.49,0.51-0.79l0-0.01c0.14-0.3,0.25-0.64,0.32-1.01 C39.61,87.1,39.64,86.68,39.64,86.22L39.64,86.22z M46.97,89.19v1.84c0,0.5-0.12,0.88-0.37,1.14c-0.12,0.13-0.27,0.23-0.42,0.3 c-0.16,0.07-0.33,0.1-0.52,0.1c-0.18,0-0.36-0.03-0.51-0.1c-0.16-0.07-0.3-0.17-0.42-0.3s-0.21-0.3-0.27-0.5 c-0.06-0.19-0.09-0.4-0.09-0.64V84.9c0-0.54,0.1-0.95,0.31-1.23c0.22-0.3,0.54-0.46,0.97-0.46c0.21,0,0.39,0.04,0.55,0.1l0.01,0 c0.16,0.07,0.29,0.18,0.39,0.33l0,0.01c0.09,0.13,0.16,0.3,0.21,0.49l0.02,0.07l0.11-0.14c0.14-0.18,0.29-0.34,0.44-0.46 c0.16-0.13,0.34-0.23,0.55-0.3c0.2-0.06,0.43-0.1,0.68-0.1c0.25,0,0.49,0.03,0.73,0.09c0.24,0.06,0.48,0.15,0.71,0.28l0.01,0.01 c0.24,0.13,0.42,0.28,0.55,0.46l0.01,0.01c0.13,0.19,0.19,0.39,0.19,0.62c0,0.16-0.03,0.31-0.08,0.45 c-0.06,0.14-0.14,0.26-0.26,0.37l-0.01,0.01c-0.11,0.1-0.22,0.18-0.34,0.23c-0.13,0.06-0.26,0.08-0.39,0.08 c-0.06,0-0.14-0.01-0.26-0.04c-0.09-0.02-0.23-0.06-0.39-0.12l-0.01,0c-0.14-0.04-0.28-0.08-0.4-0.1 c-0.12-0.02-0.24-0.03-0.35-0.03c-0.14,0-0.27,0.02-0.38,0.05c-0.11,0.03-0.2,0.09-0.29,0.15l-0.01,0 c-0.08,0.07-0.16,0.16-0.22,0.26c-0.07,0.11-0.13,0.24-0.18,0.39l0,0.01c-0.05,0.15-0.1,0.32-0.13,0.51 c-0.04,0.2-0.07,0.4-0.09,0.62l0,0c-0.02,0.23-0.04,0.48-0.05,0.76C46.97,88.55,46.97,88.85,46.97,89.19L46.97,89.19z M60.12,85.03 v6.4c0,0.37-0.02,0.72-0.06,1.05c-0.04,0.32-0.1,0.62-0.18,0.9l0,0.01c-0.08,0.28-0.19,0.53-0.32,0.76l-0.01,0.01 c-0.13,0.23-0.29,0.44-0.47,0.62l-0.01,0.01c-0.18,0.18-0.39,0.34-0.63,0.47c-0.24,0.13-0.5,0.25-0.8,0.33 c-0.29,0.09-0.61,0.15-0.97,0.2c-0.36,0.04-0.75,0.06-1.17,0.06c-0.39,0-0.76-0.03-1.11-0.08c-0.35-0.06-0.69-0.14-0.99-0.25 c-0.31-0.11-0.58-0.24-0.83-0.38c-0.25-0.15-0.46-0.31-0.63-0.49c-0.18-0.19-0.31-0.37-0.4-0.57c-0.09-0.2-0.14-0.4-0.14-0.61 c0-0.16,0.03-0.31,0.08-0.44s0.14-0.26,0.25-0.36l0,0c0.11-0.1,0.23-0.18,0.37-0.23c0.13-0.05,0.28-0.08,0.43-0.08 c0.19,0,0.38,0.04,0.55,0.13c0.17,0.08,0.32,0.21,0.46,0.37l0.37,0.44c0.06,0.06,0.11,0.12,0.18,0.18c0.06,0.06,0.13,0.11,0.2,0.16 l0.01,0c0.06,0.04,0.14,0.08,0.22,0.12l0.01,0c0.08,0.03,0.16,0.06,0.26,0.08l0.01,0c0.1,0.02,0.2,0.04,0.31,0.05 c0.11,0.01,0.24,0.02,0.38,0.02c0.27,0,0.52-0.02,0.72-0.06c0.2-0.04,0.37-0.09,0.51-0.16l0.01,0c0.13-0.07,0.25-0.15,0.34-0.24 c0.09-0.09,0.17-0.2,0.22-0.32c0.06-0.13,0.11-0.27,0.14-0.41c0.03-0.14,0.06-0.29,0.07-0.44c0.01-0.17,0.02-0.38,0.03-0.64 l0.01-0.34c-0.07,0.07-0.13,0.14-0.2,0.2c-0.21,0.19-0.43,0.35-0.66,0.48l-0.01,0c-0.24,0.13-0.49,0.23-0.77,0.29 c-0.28,0.07-0.58,0.1-0.9,0.1c-0.39,0-0.75-0.05-1.09-0.15c-0.34-0.1-0.66-0.25-0.95-0.45c-0.29-0.2-0.55-0.44-0.77-0.72 c-0.22-0.28-0.41-0.59-0.57-0.95c-0.15-0.35-0.27-0.73-0.35-1.14c-0.08-0.4-0.11-0.83-0.11-1.29c0-0.34,0.02-0.67,0.07-0.97 c0.05-0.31,0.12-0.6,0.21-0.88c0.1-0.28,0.21-0.54,0.35-0.78c0.13-0.23,0.29-0.45,0.47-0.64c0.17-0.19,0.36-0.36,0.57-0.51 c0.2-0.15,0.42-0.27,0.65-0.37l0.01,0c0.23-0.1,0.47-0.17,0.72-0.22c0.25-0.05,0.51-0.07,0.79-0.07c0.32,0,0.63,0.03,0.92,0.1 c0.29,0.06,0.56,0.16,0.8,0.29c0.24,0.13,0.48,0.29,0.7,0.49l0.01,0.01c0.09,0.08,0.19,0.17,0.28,0.27 c0.01-0.12,0.04-0.23,0.07-0.33c0.06-0.18,0.14-0.33,0.25-0.45c0.11-0.13,0.25-0.22,0.39-0.29c0.15-0.06,0.31-0.1,0.48-0.1 c0.24,0,0.45,0.04,0.62,0.13c0.18,0.09,0.32,0.22,0.41,0.4c0.08,0.16,0.14,0.35,0.18,0.57C60.11,84.52,60.12,84.76,60.12,85.03 L60.12,85.03z M53.75,87.82c0,0.43,0.05,0.8,0.14,1.12c0.09,0.31,0.22,0.57,0.4,0.78c0.18,0.21,0.38,0.36,0.6,0.46 c0.23,0.1,0.48,0.15,0.76,0.15c0.16,0,0.32-0.02,0.48-0.07c0.16-0.04,0.31-0.11,0.46-0.2c0.15-0.09,0.28-0.2,0.4-0.33 c0.12-0.13,0.23-0.29,0.32-0.48l0.01-0.01c0.09-0.18,0.16-0.38,0.21-0.6c0.05-0.22,0.07-0.47,0.07-0.74c0-0.43-0.05-0.81-0.14-1.14 c-0.09-0.32-0.23-0.6-0.41-0.83l-0.01-0.01c-0.18-0.22-0.38-0.38-0.6-0.49c-0.23-0.11-0.49-0.17-0.79-0.17 c-0.28,0-0.54,0.05-0.76,0.16c-0.22,0.11-0.42,0.27-0.59,0.48c-0.17,0.22-0.3,0.49-0.39,0.8C53.79,87.03,53.75,87.4,53.75,87.82 L53.75,87.82z M67.67,91.42c-0.21,0.16-0.42,0.3-0.63,0.42c-0.27,0.16-0.53,0.29-0.79,0.4l-0.01,0c-0.26,0.11-0.53,0.19-0.82,0.24 c-0.29,0.05-0.6,0.08-0.92,0.08c-0.29,0-0.58-0.03-0.84-0.09c-0.27-0.06-0.51-0.15-0.74-0.27c-0.23-0.12-0.43-0.26-0.61-0.42 l-0.01-0.01c-0.18-0.16-0.32-0.34-0.45-0.55c-0.13-0.21-0.22-0.42-0.28-0.65c-0.06-0.23-0.09-0.46-0.09-0.7 c0-0.32,0.05-0.63,0.16-0.91c0.1-0.28,0.26-0.54,0.47-0.77l0.01-0.01c0.21-0.23,0.45-0.42,0.72-0.57c0.28-0.15,0.59-0.26,0.95-0.34 c0.6-0.13,1.21-0.25,1.81-0.38c0.24-0.05,0.46-0.1,0.65-0.15c0.21-0.05,0.42-0.1,0.63-0.16l0.49-0.14 c-0.02-0.21-0.05-0.4-0.09-0.55c-0.05-0.19-0.12-0.34-0.21-0.45l-0.01-0.01c-0.08-0.1-0.2-0.17-0.37-0.23 c-0.19-0.06-0.44-0.09-0.75-0.09c-0.27,0-0.5,0.02-0.7,0.05c-0.19,0.04-0.34,0.09-0.46,0.15l-0.01,0 c-0.12,0.07-0.24,0.15-0.35,0.26c-0.11,0.11-0.21,0.23-0.3,0.38l-0.25,0.38c-0.08,0.11-0.14,0.2-0.19,0.26l0,0 c-0.07,0.08-0.17,0.14-0.3,0.17c-0.11,0.03-0.24,0.04-0.39,0.04c-0.3,0-0.56-0.1-0.78-0.29l-0.01-0.01 c-0.11-0.1-0.19-0.21-0.24-0.33l-0.01-0.01c-0.05-0.13-0.08-0.26-0.08-0.41c0-0.22,0.04-0.43,0.12-0.64 c0.07-0.21,0.19-0.41,0.33-0.61c0.15-0.2,0.34-0.38,0.57-0.54c0.23-0.16,0.49-0.3,0.8-0.42c0.3-0.12,0.64-0.22,1.02-0.28 c0.38-0.06,0.79-0.09,1.23-0.09c0.49,0,0.94,0.03,1.33,0.09c0.39,0.06,0.74,0.15,1.03,0.27c0.3,0.12,0.56,0.28,0.77,0.48l0.01,0.01 c0.21,0.2,0.38,0.43,0.5,0.69c0.12,0.26,0.21,0.57,0.27,0.91c0.06,0.34,0.09,0.72,0.09,1.14c0,0.84-0.01,1.68-0.02,2.52 c0,0.39,0.07,0.81,0.2,1.24c0.07,0.23,0.12,0.41,0.16,0.56c0.04,0.16,0.06,0.29,0.06,0.37c0,0.14-0.04,0.28-0.1,0.42l-0.01,0.01 c-0.06,0.12-0.16,0.24-0.28,0.34c-0.12,0.11-0.26,0.19-0.4,0.24c-0.14,0.06-0.3,0.08-0.46,0.08c-0.14,0-0.29-0.03-0.42-0.1 c-0.13-0.06-0.26-0.15-0.38-0.27c-0.12-0.11-0.24-0.25-0.36-0.41C67.84,91.68,67.76,91.55,67.67,91.42L67.67,91.42z M67.38,88.22 l-0.35,0.1c-0.24,0.06-0.51,0.13-0.81,0.19c-0.43,0.09-0.85,0.19-1.28,0.29c-0.1,0.03-0.2,0.07-0.29,0.12 c-0.1,0.05-0.2,0.12-0.29,0.2c-0.08,0.07-0.15,0.15-0.19,0.25c-0.04,0.1-0.06,0.22-0.06,0.35c0,0.14,0.03,0.27,0.08,0.38 c0.05,0.12,0.13,0.23,0.24,0.32c0.11,0.1,0.23,0.17,0.37,0.22c0.14,0.05,0.3,0.08,0.49,0.08c0.2,0,0.4-0.02,0.58-0.07 c0.19-0.04,0.36-0.11,0.53-0.2c0.17-0.09,0.32-0.19,0.44-0.3c0.12-0.11,0.22-0.23,0.29-0.36l0.01-0.01 c0.08-0.15,0.15-0.34,0.19-0.59c0.05-0.26,0.07-0.58,0.07-0.95V88.22L67.38,88.22z M74.57,84.36c0.1-0.1,0.19-0.2,0.29-0.28 c0.22-0.2,0.46-0.36,0.7-0.49c0.24-0.13,0.51-0.22,0.79-0.29c0.28-0.06,0.58-0.09,0.89-0.09c0.3,0,0.6,0.03,0.87,0.1 c0.28,0.07,0.54,0.17,0.78,0.3l0.01,0.01c0.24,0.13,0.46,0.3,0.63,0.49l0.01,0.01c0.18,0.19,0.34,0.41,0.46,0.66l0,0 c0.08,0.14,0.14,0.29,0.19,0.44c0.05,0.16,0.09,0.32,0.11,0.49l0,0.01c0.02,0.16,0.04,0.34,0.05,0.55 c0.01,0.21,0.02,0.43,0.02,0.66v4.1c0,0.24-0.03,0.45-0.08,0.64c-0.06,0.19-0.15,0.36-0.27,0.5c-0.12,0.14-0.26,0.24-0.42,0.31 c-0.16,0.07-0.33,0.1-0.52,0.1c-0.19,0-0.37-0.03-0.53-0.1c-0.16-0.07-0.3-0.17-0.43-0.31l-0.01-0.01c-0.12-0.13-0.2-0.3-0.26-0.48 c-0.06-0.18-0.09-0.4-0.09-0.63v-3.67c0-0.35-0.03-0.66-0.07-0.92c-0.05-0.26-0.12-0.47-0.21-0.65l-0.01-0.01 c-0.08-0.14-0.2-0.25-0.35-0.33l-0.02-0.01c-0.17-0.08-0.39-0.12-0.65-0.12c-0.18,0-0.34,0.03-0.5,0.08 c-0.16,0.05-0.31,0.13-0.46,0.23c-0.14,0.1-0.27,0.23-0.38,0.37c-0.11,0.14-0.19,0.31-0.26,0.49c-0.05,0.15-0.09,0.37-0.11,0.66 c-0.03,0.3-0.04,0.67-0.04,1.11v2.76c0,0.24-0.03,0.46-0.09,0.64c-0.06,0.2-0.15,0.36-0.28,0.5c-0.13,0.13-0.27,0.24-0.43,0.3 l-0.02,0.01c-0.15,0.06-0.32,0.09-0.5,0.09c-0.19,0-0.36-0.04-0.51-0.1l-0.01-0.01c-0.15-0.07-0.29-0.17-0.4-0.3 c-0.12-0.14-0.21-0.3-0.27-0.5c-0.06-0.18-0.09-0.4-0.09-0.63v-6.37c0-0.23,0.03-0.43,0.08-0.6c0.05-0.19,0.13-0.34,0.25-0.47 l0.01-0.01c0.11-0.12,0.24-0.21,0.38-0.27c0.15-0.06,0.32-0.09,0.5-0.09c0.11,0,0.22,0.01,0.33,0.04c0.11,0.03,0.21,0.07,0.3,0.12 c0.1,0.06,0.18,0.13,0.26,0.21c0.07,0.08,0.14,0.18,0.19,0.28c0.05,0.11,0.1,0.23,0.12,0.36L74.57,84.36L74.57,84.36z M85.18,84.66 v6.37c0,0.49-0.12,0.87-0.37,1.14c-0.12,0.13-0.27,0.24-0.42,0.3l-0.01,0c-0.16,0.06-0.33,0.1-0.51,0.1c-0.19,0-0.36-0.03-0.52-0.1 c-0.16-0.07-0.3-0.17-0.42-0.31c-0.12-0.14-0.21-0.3-0.27-0.5c-0.06-0.19-0.08-0.4-0.08-0.63v-6.3c0-0.24,0.03-0.45,0.08-0.63 c0.06-0.19,0.15-0.36,0.27-0.49c0.12-0.13,0.26-0.23,0.42-0.3c0.16-0.07,0.33-0.1,0.52-0.1s0.36,0.03,0.52,0.1 c0.16,0.07,0.3,0.16,0.42,0.29c0.13,0.13,0.22,0.29,0.28,0.47C85.15,84.25,85.18,84.45,85.18,84.66L85.18,84.66z M83.89,82.59 c-0.17,0-0.34-0.03-0.49-0.08c-0.15-0.05-0.29-0.14-0.42-0.25l0,0c-0.13-0.11-0.23-0.25-0.29-0.41c-0.06-0.16-0.1-0.34-0.1-0.53 c0-0.18,0.03-0.35,0.1-0.5s0.17-0.29,0.3-0.41c0.13-0.12,0.27-0.21,0.42-0.26c0.15-0.06,0.32-0.09,0.49-0.09 c0.16,0,0.32,0.03,0.47,0.08c0.15,0.05,0.29,0.13,0.41,0.24c0.14,0.11,0.24,0.25,0.31,0.42c0.06,0.16,0.1,0.34,0.1,0.54 c0,0.19-0.03,0.37-0.1,0.53c-0.06,0.16-0.16,0.3-0.29,0.42c-0.13,0.11-0.26,0.2-0.41,0.25C84.22,82.56,84.06,82.59,83.89,82.59 L83.89,82.59z M95.77,89.64c0,0.15-0.02,0.31-0.07,0.48c-0.04,0.16-0.11,0.33-0.2,0.49l0,0.01c-0.09,0.17-0.2,0.33-0.33,0.48 l-0.01,0.01c-0.13,0.16-0.29,0.3-0.46,0.45c-0.18,0.15-0.38,0.29-0.61,0.41c-0.22,0.12-0.46,0.22-0.73,0.31 c-0.27,0.09-0.55,0.16-0.85,0.2c-0.3,0.04-0.61,0.07-0.94,0.07c-1.42,0-2.53-0.42-3.33-1.25c-0.4-0.42-0.71-0.9-0.91-1.46 c-0.2-0.55-0.3-1.18-0.3-1.87c0-0.46,0.04-0.9,0.13-1.32c0.09-0.42,0.23-0.81,0.41-1.17c0.18-0.36,0.41-0.69,0.68-0.97 c0.27-0.28,0.57-0.52,0.92-0.72c0.35-0.2,0.73-0.35,1.14-0.45c0.41-0.1,0.86-0.15,1.33-0.15c0.29,0,0.58,0.02,0.85,0.07 c0.27,0.04,0.54,0.11,0.79,0.2c0.24,0.09,0.47,0.19,0.69,0.3c0.21,0.11,0.4,0.24,0.58,0.38c0.18,0.14,0.33,0.28,0.46,0.43 c0.13,0.15,0.25,0.31,0.34,0.47l0.01,0.01c0.09,0.16,0.16,0.31,0.21,0.46c0.05,0.16,0.08,0.31,0.08,0.46 c0,0.16-0.03,0.31-0.09,0.45c-0.06,0.14-0.15,0.26-0.27,0.37c-0.12,0.11-0.25,0.19-0.39,0.25c-0.14,0.05-0.3,0.08-0.46,0.08 c-0.11,0-0.21-0.01-0.31-0.04c-0.1-0.03-0.19-0.08-0.27-0.14c-0.07-0.05-0.14-0.12-0.22-0.21c-0.07-0.08-0.15-0.18-0.23-0.29 l0-0.01c-0.13-0.2-0.26-0.37-0.39-0.51c-0.13-0.14-0.26-0.26-0.39-0.35c-0.13-0.09-0.28-0.16-0.44-0.2 c-0.17-0.04-0.36-0.07-0.56-0.07c-0.29,0-0.56,0.06-0.79,0.17s-0.44,0.29-0.62,0.51c-0.18,0.23-0.32,0.51-0.41,0.83 c-0.09,0.33-0.14,0.7-0.14,1.13c0,0.2,0.01,0.39,0.04,0.57c0.02,0.18,0.06,0.35,0.11,0.52c0.05,0.16,0.11,0.31,0.17,0.45l0.01,0.01 c0.07,0.13,0.14,0.25,0.23,0.36c0.09,0.11,0.18,0.21,0.29,0.29c0.1,0.08,0.22,0.15,0.34,0.21c0.12,0.06,0.25,0.1,0.39,0.13 c0.13,0.03,0.28,0.04,0.43,0.04c0.2,0,0.39-0.02,0.56-0.07c0.17-0.05,0.32-0.11,0.46-0.2c0.14-0.09,0.28-0.21,0.41-0.35 c0.13-0.15,0.25-0.32,0.37-0.52l0-0.01c0.07-0.13,0.14-0.24,0.22-0.34l0.01-0.01c0.08-0.11,0.16-0.19,0.25-0.27l0.01,0 c0.09-0.08,0.2-0.15,0.32-0.19l0.01,0c0.11-0.04,0.24-0.06,0.37-0.06c0.16,0,0.31,0.03,0.45,0.1s0.26,0.16,0.37,0.28 c0.1,0.12,0.18,0.24,0.23,0.37l0.01,0.01C95.75,89.38,95.77,89.51,95.77,89.64L95.77,89.64z"/></g></svg>